<svg width="33" height="33" viewBox="0 0 33 33" fill="none" xmlns="http://www.w3.org/2000/svg">
<path d="M26.5 5.5H6.5C5.94772 5.5 5.5 5.94772 5.5 6.5V26.5C5.5 27.0523 5.94772 27.5 6.5 27.5H26.5C27.0523 27.5 27.5 27.0523 27.5 26.5V6.5C27.5 5.94772 27.0523 5.5 26.5 5.5Z" stroke="#415174" stroke-width="2" stroke-linecap="round" stroke-linejoin="round"/>
<path d="M22.5 3.5V7.5" stroke="#415174" stroke-width="2" stroke-linecap="round" stroke-linejoin="round"/>
<path d="M10.5 3.5V7.5" stroke="#415174" stroke-width="2" stroke-linecap="round" stroke-linejoin="round"/>
<path d="M5.5 11.5H27.5" stroke="#415174" stroke-width="2" stroke-linecap="round" stroke-linejoin="round"/>
<path d="M12 16.5H15.5L13.5 19C13.8291 18.9994 14.1533 19.0801 14.4438 19.2349C14.7343 19.3897 14.9821 19.6137 15.1653 19.8872C15.3484 20.1607 15.4612 20.4752 15.4937 20.8027C15.5261 21.1303 15.4773 21.4608 15.3514 21.7649C15.2255 22.069 15.0265 22.3374 14.772 22.5462C14.5176 22.7549 14.2155 22.8977 13.8927 22.9618C13.5698 23.0258 13.2361 23.0092 12.9212 22.9134C12.6063 22.8176 12.32 22.6455 12.0875 22.4125" stroke="#415174" stroke-width="2" stroke-linecap="round" stroke-linejoin="round"/>
<path d="M18.5 18L20.5 16.5V23" stroke="#415174" stroke-width="2" stroke-linecap="round" stroke-linejoin="round"/>
</svg>
