<svg width="33" height="20" viewBox="0 0 33 20" fill="none" xmlns="http://www.w3.org/2000/svg">
<path d="M8.5 8.22947C7.4 8.22947 6.5 7.86876 5.8 7.14734C5.1 6.42593 4.75 5.49839 4.75 4.36473C4.75 3.23108 5.1 2.30354 5.8 1.58213C6.5 0.860709 7.4 0.5 8.5 0.5C9.6 0.5 10.5 0.860709 11.2 1.58213C11.9 2.30354 12.25 3.23108 12.25 4.36473C12.25 5.49839 11.9 6.42593 11.2 7.14734C10.5 7.86876 9.6 8.22947 8.5 8.22947ZM0.5 16.5V14.0781C0.5 13.4254 0.658333 12.8672 0.975 12.4034C1.29167 11.9396 1.7 11.5875 2.2 11.347C3.31667 10.8317 4.3875 10.4452 5.4125 10.1876C6.4375 9.92995 7.46667 9.80113 8.5 9.80113C9.53333 9.80113 10.5583 9.93425 11.575 10.2005C12.5917 10.4667 13.6577 10.8506 14.773 11.352C15.2947 11.5947 15.713 11.9465 16.0278 12.4075C16.3426 12.8685 16.5 13.4254 16.5 14.0781V16.5H0.5ZM2 14.9541H15V14.0781C15 13.8033 14.9208 13.5413 14.7625 13.2923C14.6042 13.0432 14.4083 12.8586 14.175 12.7383C13.1083 12.2059 12.1333 11.8408 11.25 11.6433C10.3667 11.4458 9.45 11.347 8.5 11.347C7.55 11.347 6.625 11.4458 5.725 11.6433C4.825 11.8408 3.85 12.2059 2.8 12.7383C2.56667 12.8586 2.375 13.0432 2.225 13.2923C2.075 13.5413 2 13.8033 2 14.0781V14.9541ZM8.5 6.68358C9.15 6.68358 9.6875 6.46457 10.1125 6.02657C10.5375 5.58857 10.75 5.03462 10.75 4.36473C10.75 3.69485 10.5375 3.1409 10.1125 2.7029C9.6875 2.2649 9.15 2.04589 8.5 2.04589C7.85 2.04589 7.3125 2.2649 6.8875 2.7029C6.4625 3.1409 6.25 3.69485 6.25 4.36473C6.25 5.03462 6.4625 5.58857 6.8875 6.02657C7.3125 6.46457 7.85 6.68358 8.5 6.68358Z" fill="#415174" stroke="#415174" stroke-width="0.5"/>
<path d="M24.5 8.22947C23.4 8.22947 22.5 7.86876 21.8 7.14734C21.1 6.42593 20.75 5.49839 20.75 4.36473C20.75 3.23108 21.1 2.30354 21.8 1.58213C22.5 0.860709 23.4 0.5 24.5 0.5C25.6 0.5 26.5 0.860709 27.2 1.58213C27.9 2.30354 28.25 3.23108 28.25 4.36473C28.25 5.49839 27.9 6.42593 27.2 7.14734C26.5 7.86876 25.6 8.22947 24.5 8.22947ZM16.5 16.5V14.0781C16.5 13.4254 16.6583 12.8672 16.975 12.4034C17.2917 11.9396 17.7 11.5875 18.2 11.347C19.3167 10.8317 20.3875 10.4452 21.4125 10.1876C22.4375 9.92995 23.4667 9.80113 24.5 9.80113C25.5333 9.80113 26.5583 9.93425 27.575 10.2005C28.5917 10.4667 29.6577 10.8506 30.773 11.352C31.2947 11.5947 31.713 11.9465 32.0278 12.4075C32.3426 12.8685 32.5 13.4254 32.5 14.0781V16.5H16.5ZM18 14.9541H31V14.0781C31 13.8033 30.9208 13.5413 30.7625 13.2923C30.6042 13.0432 30.4083 12.8586 30.175 12.7383C29.1083 12.2059 28.1333 11.8408 27.25 11.6433C26.3667 11.4458 25.45 11.347 24.5 11.347C23.55 11.347 22.625 11.4458 21.725 11.6433C20.825 11.8408 19.85 12.2059 18.8 12.7383C18.5667 12.8586 18.375 13.0432 18.225 13.2923C18.075 13.5413 18 13.8033 18 14.0781V14.9541ZM24.5 6.68358C25.15 6.68358 25.6875 6.46457 26.1125 6.02657C26.5375 5.58857 26.75 5.03462 26.75 4.36473C26.75 3.69485 26.5375 3.1409 26.1125 2.7029C25.6875 2.2649 25.15 2.04589 24.5 2.04589C23.85 2.04589 23.3125 2.2649 22.8875 2.7029C22.4625 3.1409 22.25 3.69485 22.25 4.36473C22.25 5.03462 22.4625 5.58857 22.8875 6.02657C23.3125 6.46457 23.85 6.68358 24.5 6.68358Z" fill="#415174" stroke="#415174" stroke-width="0.5"/>
<path d="M9.5 18.5V17.5V15.6836C9.5 15.0264 9.66189 14.4033 10.0304 13.8636C10.3656 13.3728 10.8064 12.9914 11.3416 12.7341L11.3488 12.7306L11.356 12.7273C12.241 12.3189 13.1028 12.0065 13.9406 11.7959C14.0857 11.7594 14.2311 11.726 14.3767 11.6957C14.1567 11.5512 13.9497 11.3802 13.7573 11.1819C13.0276 10.4298 12.6875 9.47272 12.6875 8.39855C12.6875 7.32438 13.0276 6.36726 13.7573 5.61522M9.5 18.5L13.7573 5.61522M9.5 18.5H10.5H22.5H23.5V17.5V15.6836C23.5 15.0277 23.3395 14.4053 22.9717 13.8667C22.6309 13.3677 22.1756 12.9877 21.6265 12.7323L21.6265 12.7322L21.6148 12.727C20.7357 12.3317 19.8836 12.0238 19.0596 11.808C18.9114 11.7692 18.7629 11.7338 18.6141 11.7017C18.8376 11.556 19.0476 11.3829 19.2427 11.1819C19.9724 10.4298 20.3125 9.47272 20.3125 8.39855C20.3125 7.32438 19.9724 6.36726 19.2427 5.61522C18.5106 4.86072 17.5672 4.5 16.5 4.5C15.4328 4.5 14.4894 4.86072 13.7573 5.61522M9.5 18.5L13.7573 5.61522M19.8172 15.3406H13.1575C13.6971 15.0978 14.1884 14.9318 14.6331 14.8342C15.2356 14.702 15.8574 14.6353 16.5 14.6353C17.1427 14.6353 17.7569 14.702 18.3443 14.8334C18.7802 14.9309 19.2704 15.097 19.8172 15.3406ZM16.9917 8.94855C16.8745 9.06934 16.7367 9.13768 16.5 9.13768C16.2633 9.13768 16.1255 9.06934 16.0083 8.94855C15.8891 8.82567 15.8125 8.66874 15.8125 8.39855C15.8125 8.12836 15.8891 7.97143 16.0083 7.84855C16.1255 7.72776 16.2633 7.65942 16.5 7.65942C16.7367 7.65942 16.8745 7.72776 16.9917 7.84855C17.1109 7.97143 17.1875 8.12836 17.1875 8.39855C17.1875 8.66874 17.1109 8.82567 16.9917 8.94855Z" fill="#415174" stroke="#F7F8FA" stroke-width="2"/>
<path d="M16.5 11.2971C15.675 11.2971 15 11.0266 14.475 10.4855C13.95 9.94444 13.6875 9.24879 13.6875 8.39855C13.6875 7.54831 13.95 6.85266 14.475 6.31159C15 5.77053 15.675 5.5 16.5 5.5C17.325 5.5 18 5.77053 18.525 6.31159C19.05 6.85266 19.3125 7.54831 19.3125 8.39855C19.3125 9.24879 19.05 9.94444 18.525 10.4855C18 11.0266 17.325 11.2971 16.5 11.2971ZM10.5 17.5V15.6836C10.5 15.194 10.6187 14.7754 10.8563 14.4275C11.0938 14.0797 11.4 13.8156 11.775 13.6353C12.6125 13.2488 13.4156 12.9589 14.1844 12.7657C14.9531 12.5725 15.725 12.4758 16.5 12.4758C17.275 12.4758 18.0438 12.5757 18.8063 12.7754C19.5688 12.975 20.3683 13.2629 21.2048 13.639C21.596 13.821 21.9097 14.0849 22.1458 14.4306C22.3819 14.7764 22.5 15.194 22.5 15.6836V17.5H10.5ZM11.625 16.3406H21.375V15.6836C21.375 15.4775 21.3156 15.281 21.1969 15.0942C21.0781 14.9074 20.9313 14.7689 20.7563 14.6787C19.9563 14.2794 19.225 14.0056 18.5625 13.8575C17.9 13.7093 17.2125 13.6353 16.5 13.6353C15.7875 13.6353 15.0938 13.7093 14.4188 13.8575C13.7438 14.0056 13.0125 14.2794 12.225 14.6787C12.05 14.7689 11.9062 14.9074 11.7938 15.0942C11.6813 15.281 11.625 15.4775 11.625 15.6836V16.3406ZM16.5 10.1377C16.9875 10.1377 17.3906 9.97343 17.7094 9.64493C18.0281 9.31643 18.1875 8.90097 18.1875 8.39855C18.1875 7.89614 18.0281 7.48068 17.7094 7.15217C17.3906 6.82367 16.9875 6.65942 16.5 6.65942C16.0125 6.65942 15.6094 6.82367 15.2906 7.15217C14.9719 7.48068 14.8125 7.89614 14.8125 8.39855C14.8125 8.90097 14.9719 9.31643 15.2906 9.64493C15.6094 9.97343 16.0125 10.1377 16.5 10.1377Z" fill="#415174" stroke="#415174" stroke-width="0.5"/>
</svg>
