<svg width="33" height="33" viewBox="0 0 33 33" fill="none" xmlns="http://www.w3.org/2000/svg">
<path d="M20.1667 16.4668C18.7 16.4668 17.5 16.0001 16.5667 15.0668C15.6333 14.1335 15.1667 12.9335 15.1667 11.4668C15.1667 10.0001 15.6333 8.80013 16.5667 7.8668C17.5 6.93346 18.7 6.4668 20.1667 6.4668C21.6333 6.4668 22.8333 6.93346 23.7667 7.8668C24.7 8.80013 25.1667 10.0001 25.1667 11.4668C25.1667 12.9335 24.7 14.1335 23.7667 15.0668C22.8333 16.0001 21.6333 16.4668 20.1667 16.4668ZM11.5 27.1668C10.3954 27.1668 9.5 26.2714 9.5 25.1668V24.0335C9.5 23.189 9.71111 22.4668 10.1333 21.8668C10.5556 21.2668 11.1 20.8112 11.7667 20.5001C13.2556 19.8335 14.6833 19.3335 16.05 19.0001C17.4167 18.6668 18.7889 18.5001 20.1667 18.5001C21.5444 18.5001 22.9111 18.6724 24.2667 19.0168C25.6222 19.3612 27.0436 19.8578 28.5307 20.5066C29.2263 20.8205 29.7839 21.2757 30.2037 21.8721C30.6235 22.4686 30.8333 23.189 30.8333 24.0335V25.1668C30.8333 26.2714 29.9379 27.1668 28.8333 27.1668H11.5ZM11.5 24.0335C11.5 24.6594 12.0074 25.1668 12.6333 25.1668H27.7C28.3259 25.1668 28.8333 24.6594 28.8333 24.0335C28.8333 23.6779 28.7278 23.339 28.5167 23.0168C28.3056 22.6946 28.0444 22.4557 27.7333 22.3001C26.3111 21.6112 25.0111 21.139 23.8333 20.8835C22.6556 20.6279 21.4333 20.5001 20.1667 20.5001C18.9 20.5001 17.6667 20.6279 16.4667 20.8835C15.2667 21.139 13.9667 21.6112 12.5667 22.3001C12.2556 22.4557 12 22.6946 11.8 23.0168C11.6 23.339 11.5 23.6779 11.5 24.0335ZM20.1667 14.4668C21.0333 14.4668 21.75 14.1835 22.3167 13.6168C22.8833 13.0501 23.1667 12.3335 23.1667 11.4668C23.1667 10.6001 22.8833 9.88346 22.3167 9.3168C21.75 8.75013 21.0333 8.4668 20.1667 8.4668C19.3 8.4668 18.5833 8.75013 18.0167 9.3168C17.45 9.88346 17.1667 10.6001 17.1667 11.4668C17.1667 12.3335 17.45 13.0501 18.0167 13.6168C18.5833 14.1835 19.3 14.4668 20.1667 14.4668Z" fill="#415174"/>
<path d="M4.358 19.5874L4.34378 19.5939C3.51931 19.9787 2.83855 20.5481 2.31553 21.2913C1.75749 22.0843 1.5 23.0152 1.5 24.0335V25.1668C1.5 26.8237 2.84315 28.1668 4.5 28.1668H21.8333C23.4902 28.1668 24.8333 26.8237 24.8333 25.1668V24.0335C24.8333 23.0165 24.5778 22.087 24.0215 21.2966C23.4939 20.5469 22.7928 19.9791 21.942 19.5951L21.9421 19.595L21.9306 19.59C20.4014 18.9229 18.9286 18.4073 17.5129 18.0476C16.0781 17.683 14.6288 17.5001 13.1667 17.5001C11.7074 17.5001 10.2556 17.6768 8.81304 18.0286C7.37904 18.3784 5.89369 18.8998 4.358 19.5874ZM8.85956 15.7739C10.0021 16.9164 11.4671 17.4668 13.1667 17.4668C14.8663 17.4668 16.3312 16.9164 17.4738 15.7739C18.6163 14.6314 19.1667 13.1664 19.1667 11.4668C19.1667 9.76721 18.6163 8.30223 17.4738 7.15969C16.3312 6.01715 14.8663 5.4668 13.1667 5.4668C11.4671 5.4668 10.0021 6.01715 8.85956 7.15969C7.71702 8.30223 7.16667 9.76721 7.16667 11.4668C7.16667 13.1664 7.71702 14.6314 8.85956 15.7739ZM5.63333 24.1668C5.5597 24.1668 5.5 24.1071 5.5 24.0335C5.5 23.8768 5.54109 23.719 5.64964 23.5442C5.76052 23.3655 5.88168 23.2612 6.01156 23.1957C7.35513 22.5349 8.57504 22.0958 9.67496 21.8615C10.8043 21.621 11.9677 21.5001 13.1667 21.5001C14.3657 21.5001 15.5166 21.621 16.6213 21.8607C17.7002 22.0948 18.9218 22.5343 20.2907 23.1969C20.4256 23.2653 20.5567 23.3763 20.6802 23.5648C20.7939 23.7384 20.8333 23.8889 20.8333 24.0335C20.8333 24.1071 20.7736 24.1668 20.7 24.1668H5.63333ZM14.6096 12.9097C14.2466 13.2726 13.792 13.4668 13.1667 13.4668C12.5414 13.4668 12.0867 13.2726 11.7238 12.9097C11.3609 12.5468 11.1667 12.0921 11.1667 11.4668C11.1667 10.8415 11.3609 10.3868 11.7238 10.0239C12.0867 9.66099 12.5414 9.4668 13.1667 9.4668C13.792 9.4668 14.2466 9.66099 14.6096 10.0239C14.9725 10.3868 15.1667 10.8415 15.1667 11.4668C15.1667 12.0921 14.9725 12.5468 14.6096 12.9097Z" fill="#415174" stroke="#F7F8FA" stroke-width="2" stroke-linejoin="round"/>
<path d="M13.5 21.5L7 23L6 25C10.5 24.6667 19.6 24 20 24C20.4 24 15.8333 22.3333 13.5 21.5Z" fill="#F7F8FA"/>
</svg>
