<svg width="33" height="33" viewBox="0 0 33 33" fill="none" xmlns="http://www.w3.org/2000/svg">
<path d="M27.5 10.5H5.5C4.94772 10.5 4.5 10.9477 4.5 11.5V15.5C4.5 16.0523 4.94772 16.5 5.5 16.5H27.5C28.0523 16.5 28.5 16.0523 28.5 15.5V11.5C28.5 10.9477 28.0523 10.5 27.5 10.5Z" stroke="#415174" stroke-width="2" stroke-linecap="round" stroke-linejoin="round"/>
<path d="M26.5 16.5V25.5C26.5 25.7652 26.3946 26.0196 26.2071 26.2071C26.0196 26.3946 25.7652 26.5 25.5 26.5H7.5C7.23478 26.5 6.98043 26.3946 6.79289 26.2071C6.60536 26.0196 6.5 25.7652 6.5 25.5V16.5" stroke="#415174" stroke-width="2" stroke-linecap="round" stroke-linejoin="round"/>
<path d="M16.5 10.5V26.5" stroke="#415174" stroke-width="2" stroke-linecap="round" stroke-linejoin="round"/>
<path d="M22.1625 9.08748C20.7375 10.5 16.5 10.5 16.5 10.5C16.5 10.5 16.5 6.26248 17.9125 4.83748C18.4761 4.27389 19.2405 3.95728 20.0375 3.95728C20.8345 3.95728 21.5989 4.27389 22.1625 4.83748C22.7261 5.40106 23.0427 6.16545 23.0427 6.96248C23.0427 7.75951 22.7261 8.52389 22.1625 9.08748V9.08748Z" stroke="#415174" stroke-width="2" stroke-linecap="round" stroke-linejoin="round"/>
<path d="M10.8375 9.08748C12.2625 10.5 16.5 10.5 16.5 10.5C16.5 10.5 16.5 6.26248 15.0875 4.83748C14.5239 4.27389 13.7595 3.95728 12.9625 3.95728C12.1654 3.95728 11.4011 4.27389 10.8375 4.83748C10.2739 5.40106 9.95728 6.16545 9.95728 6.96248C9.95728 7.75951 10.2739 8.52389 10.8375 9.08748V9.08748Z" stroke="#415174" stroke-width="2" stroke-linecap="round" stroke-linejoin="round"/>
</svg>
