<svg width="33" height="33" viewBox="0 0 33 33" fill="none" xmlns="http://www.w3.org/2000/svg">
<path d="M26.5 26.5H6.5C5.96957 26.5 5.46086 26.2893 5.08579 25.9142C4.71071 25.5391 4.5 25.0304 4.5 24.5V10.5C4.5 9.96957 4.71071 9.46086 5.08579 9.08579C5.46086 8.71071 5.96957 8.5 6.5 8.5H10.5L12.5 5.5H20.5L22.5 8.5H26.5C27.0304 8.5 27.5391 8.71071 27.9142 9.08579C28.2893 9.46086 28.5 9.96957 28.5 10.5V24.5C28.5 25.0304 28.2893 25.5391 27.9142 25.9142C27.5391 26.2893 27.0304 26.5 26.5 26.5Z" stroke="#415174" stroke-width="2" stroke-linecap="round" stroke-linejoin="round"/>
<path d="M16.5 21.5C18.9853 21.5 21 19.4853 21 17C21 14.5147 18.9853 12.5 16.5 12.5C14.0147 12.5 12 14.5147 12 17C12 19.4853 14.0147 21.5 16.5 21.5Z" stroke="#415174" stroke-width="2" stroke-linecap="round" stroke-linejoin="round"/>
</svg>
