<svg width="33" height="33" viewBox="0 0 33 33" fill="none" xmlns="http://www.w3.org/2000/svg">
<path d="M9.45 18.5L4.5 22.5V6.5C4.5 6.23478 4.60536 5.98043 4.79289 5.79289C4.98043 5.60536 5.23478 5.5 5.5 5.5H21.5C21.7652 5.5 22.0196 5.60536 22.2071 5.79289C22.3946 5.98043 22.5 6.23478 22.5 6.5V17.5C22.5 17.7652 22.3946 18.0196 22.2071 18.2071C22.0196 18.3946 21.7652 18.5 21.5 18.5H9.45Z" stroke="#415174" stroke-width="2" stroke-linecap="round" stroke-linejoin="round"/>
<path d="M10.5 18.5V23.5C10.5 23.7652 10.6054 24.0196 10.7929 24.2071C10.9804 24.3946 11.2348 24.5 11.5 24.5H23.55L28.5 28.5V12.5C28.5 12.2348 28.3946 11.9804 28.2071 11.7929C28.0196 11.6054 27.7652 11.5 27.5 11.5H22.5" stroke="#415174" stroke-width="2" stroke-linecap="round" stroke-linejoin="round"/>
</svg>
