<svg width="33" height="33" viewBox="0 0 33 33" fill="none" xmlns="http://www.w3.org/2000/svg">
<path d="M16.5 29.5V11.5" stroke="#415174" stroke-width="2" stroke-linecap="round" stroke-linejoin="round"/>
<path d="M16.5 19.5L10.5 16.5" stroke="#415174" stroke-width="2" stroke-linecap="round" stroke-linejoin="round"/>
<path d="M16.5 16.5L22.5 13.5" stroke="#415174" stroke-width="2" stroke-linecap="round" stroke-linejoin="round"/>
<path d="M17.0626 23.15C17.98 23.7749 19.0175 24.202 20.109 24.4042C21.2005 24.6064 22.3221 24.5792 23.4025 24.3244C24.4829 24.0695 25.4985 23.5927 26.3846 22.924C27.2707 22.2554 28.008 21.4097 28.5495 20.4407C29.091 19.4717 29.425 18.4006 29.5301 17.2955C29.6352 16.1905 29.5092 15.0756 29.1601 14.0219C28.8109 12.9682 28.2463 11.9986 27.5022 11.1749C26.758 10.3513 25.8506 9.69147 24.8376 9.23752C24.6151 9.12569 24.4384 8.94014 24.3376 8.71252C23.6895 7.16872 22.6 5.85069 21.2057 4.9238C19.8114 3.99691 18.1744 3.50244 16.5001 3.50244C14.8258 3.50244 13.1888 3.99691 11.7944 4.9238C10.4001 5.85069 9.3106 7.16872 8.66256 8.71252C8.56171 8.94014 8.38499 9.12569 8.16256 9.23752C7.14956 9.69147 6.24213 10.3513 5.49796 11.1749C4.7538 11.9986 4.18919 12.9682 3.84006 14.0219C3.49093 15.0756 3.36492 16.1905 3.47003 17.2955C3.57514 18.4006 3.90908 19.4717 4.45061 20.4407C4.99214 21.4097 5.72941 22.2554 6.61552 22.924C7.50163 23.5927 8.51719 24.0695 9.5976 24.3244C10.678 24.5792 11.7996 24.6064 12.8911 24.4042C13.9826 24.202 15.0201 23.7749 15.9376 23.15C16.1047 23.0403 16.3002 22.9819 16.5001 22.9819C16.6999 22.9819 16.8955 23.0403 17.0626 23.15Z" stroke="#415174" stroke-width="2" stroke-linecap="round" stroke-linejoin="round"/>
</svg>
